<svg xmlns="http://www.w3.org/2000/svg" height="24" viewBox="0 -960 960 960" width="24"><path d="M438.385-120q-13.924 0-24.193-9.154-10.269-9.154-12.731-22.846l-10.538-83.692q-19.154-5.769-41.423-18.154-22.269-12.385-37.885-26.538L235-247.461q-12.692 5.615-25.769 1.23-13.077-4.384-20.154-16.615l-43.154-74.308q-7.077-12.231-4.154-25.538 2.923-13.308 13.923-21.847l66.846-50q-1.769-10.846-2.923-22.346-1.154-11.5-1.154-22.346 0-10.077 1.154-21.192t2.923-25.038l-66.846-50q-11-8.539-13.538-22.231-2.539-13.693 4.538-25.923l42.385-72.001q7.077-11.461 20.154-16.23 13.077-4.77 25.769.846l75.846 32.154q17.923-14.923 38.769-26.923 20.846-12 40.539-18.539L401.461-808q2.462-13.692 12.731-22.846T438.385-840h83.23q13.924 0 24.193 9.154 10.269 9.154 12.731 22.846l10.538 84.461q23 8.077 40.654 18.539 17.654 10.461 36.346 26.154L725.769-711q12.693-5.616 25.77-.846 13.077 4.769 20.154 16.23l42.384 72.77q7.077 12.231 4.154 25.538-2.923 13.308-13.923 21.847l-69.923 52.307q3.308 12.385 3.692 22.731.385 10.346.385 20.423 0 9.308-.769 19.654-.77 10.346-3.539 25.038l67.615 50.769q11 8.539 14.308 21.847 3.308 13.307-3.769 25.538l-42.615 73.539q-7.077 12.231-20.539 16.615-13.462 4.385-26.154-1.231l-76.923-32.923q-18.692 15.693-37.615 26.923-18.923 11.231-39.385 17.77L558.539-152q-2.462 13.692-12.731 22.846T521.615-120h-83.23ZM440-160h78.231L533-268.308q30.231-8 54.423-21.961 24.192-13.962 49.269-38.269L736.462-286l39.769-68-87.539-65.769q5-17.077 6.616-31.423 1.615-14.346 1.615-28.808 0-15.231-1.615-28.808-1.616-13.577-6.616-29.884L777.769-606 738-674l-102.077 42.769q-18.154-19.923-47.731-37.346t-55.961-23.115L520-800h-79.769l-12.462 107.538q-30.231 6.462-55.577 20.808-25.346 14.346-50.423 39.423L222-674l-39.769 68L269-541.231q-5 13.462-7 29.231-2 15.769-2 32.769Q260-464 262-449q2 15 6.231 29.231l-86 65.769L222-286l99-42q23.538 23.769 48.885 38.115 25.346 14.347 57.115 22.347L440-160Zm38.923-220q41.846 0 70.923-29.077 29.077-29.077 29.077-70.923 0-41.846-29.077-70.923Q520.769-580 478.923-580q-42.077 0-71.039 29.077-28.961 29.077-28.961 70.923 0 41.846 28.961 70.923Q436.846-380 478.923-380ZM480-480Z"/></svg>