<svg xmlns="http://www.w3.org/2000/svg" height="24" viewBox="0 -960 960 960" width="24"><path d="M480-440q-33.846 0-56.923-23.077Q400-486.154 400-520v-240q0-33.846 23.077-56.923Q446.154-840 480-840q33.846 0 56.923 23.077Q560-793.846 560-760v240q0 33.846-23.077 56.923Q513.846-440 480-440Zm0-200Zm-20 480v-120.692q-86.616-7.615-148.654-68.769Q249.307-410.615 241.461-499q-1.23-8.538 4.385-14.769T260-520q8.538 0 14.269 6.115 5.731 6.116 7.423 14.654 7.847 76.923 64.885 128.077Q403.615-320 480-320q77.385 0 133.923-51.654t64.385-127.577q1.692-8.538 7.423-14.654Q691.462-520 700-520q8.539 0 14.154 6.231T718.539-499q-7.846 86.385-69.385 148.154Q587.616-289.077 500-280.692V-160q0 8.539-5.731 14.269Q488.539-140 480-140t-14.269-5.731Q460-151.461 460-160Zm20-320q17 0 28.5-11.5T520-520v-240q0-17-11.5-28.5T480-800q-17 0-28.5 11.5T440-760v240q0 17 11.5 28.5T480-480Z"/></svg>