<svg xmlns="http://www.w3.org/2000/svg" height="24" viewBox="0 -960 960 960" width="24"><path d="M427.692-500h104.616v-292.308q0-21.615-15.347-36.961-15.346-15.346-36.961-15.346t-36.961 15.346q-15.347 15.346-15.347 36.961V-500ZM195.385-355.385h569.23v-80q0-10.769-6.923-17.692T740-460H220q-10.769 0-17.692 6.923t-6.923 17.692v80Zm-31.847 240h104.154v-100q0-8.5 5.758-14.25t14.269-5.75q8.512 0 14.243 5.75 5.73 5.75 5.73 14.25v100H460v-100q0-8.5 5.758-14.25 5.757-5.75 14.269-5.75t14.242 5.75q5.731 5.75 5.731 14.25v100h152.308v-100q0-8.5 5.757-14.25 5.758-5.75 14.27-5.75 8.511 0 14.242 5.75 5.731 5.75 5.731 14.25v100h104.154q12.307 0 20-9.615 7.692-9.615 3.846-21.154l-49.231-169.23H188.923l-49.231 169.23q-3.846 11.539 3.846 21.154 7.693 9.615 20 9.615Zm639.077 40h-645.23q-29.001 0-47.616-23.307Q91.154-122 99.615-150.77l55.769-191.539V-440q0-25.308 17.347-42.654Q190.077-500 215.385-500h172.307v-292.308q0-38.461 26.923-65.385 26.923-26.923 65.385-26.923t65.385 26.923q26.923 26.924 26.923 65.385V-500h172.307q25.308 0 42.654 17.346 17.347 17.346 17.347 42.654v97.692l55.769 193.077q9.154 28-9.577 50.923-18.731 22.924-48.193 22.924Zm-38-384.615h-569.23 569.23Zm-232.307-40H427.692h104.616Z"/></svg>