<svg xmlns="http://www.w3.org/2000/svg" height="24" viewBox="0 -960 960 960" width="24"><path d="M283.077-316.923q-67.677 0-115.377-47.687Q120-412.298 120-479.957q0-67.658 47.7-115.389 47.7-47.731 115.377-47.731h121.538q8.5 0 14.25 5.758 5.75 5.757 5.75 14.269 0 8.511-5.75 14.242-5.75 5.731-14.25 5.731H282.986q-50.678 0-86.832 36.154Q160-530.769 160-480t36.154 86.923q36.154 36.154 86.832 36.154h121.629q8.5 0 14.25 5.758 5.75 5.757 5.75 14.269t-5.75 14.242q-5.75 5.731-14.25 5.731H283.077ZM360-460q-8.5 0-14.25-5.758-5.75-5.757-5.75-14.269t5.75-14.242Q351.5-500 360-500h240q8.5 0 14.25 5.758 5.75 5.757 5.75 14.269t-5.75 14.242Q608.5-460 600-460H360Zm195.385 143.077q-8.5 0-14.25-5.758-5.75-5.757-5.75-14.269 0-8.511 5.75-14.242 5.75-5.731 14.25-5.731h121.629q50.678 0 86.832-36.154Q800-429.231 800-480t-36.154-86.923q-36.154-36.154-86.832-36.154H555.385q-8.5 0-14.25-5.758-5.75-5.757-5.75-14.269t5.75-14.242q5.75-5.731 14.25-5.731h121.538q67.677 0 115.377 47.687Q840-547.702 840-480.043q0 67.658-47.7 115.389-47.7 47.731-115.377 47.731H555.385Z"/></svg>